<svg height="3582" width="720" xmlns="http://www.w3.org/2000/svg">
<rect height="3582" fill="#555" width="720"></rect>
<text fill="#7f7" font-family="Courier New" font-size="12" xml:space="preserve">
<tspan x="10" y="26">33 megabytes installed</tspan>
<tspan x="10" y="42"></tspan>
<tspan x="10" y="58">node_modules</tspan>
<tspan x="10" y="74">└─┬ ember-component-css@0.3.2 </tspan>
<tspan x="10" y="90">  ├─┬ broccoli-concat@3.2.2 </tspan>
<tspan x="10" y="106">  │ ├─┬ broccoli-kitchen-sink-helpers@0.3.1 </tspan>
<tspan x="10" y="122">  │ │ └─┬ glob@5.0.15 </tspan>
<tspan x="10" y="138">  │ │   ├─┬ inflight@1.0.6 </tspan>
<tspan x="10" y="154">  │ │   │ └── wrappy@1.0.2 </tspan>
<tspan x="10" y="170">  │ │   ├── inherits@2.0.3 </tspan>
<tspan x="10" y="186">  │ │   ├── once@1.4.0 </tspan>
<tspan x="10" y="202">  │ │   └── path-is-absolute@1.0.1 </tspan>
<tspan x="10" y="218">  │ ├─┬ broccoli-stew@1.4.2 </tspan>
<tspan x="10" y="234">  │ │ ├── broccoli-merge-trees@1.2.4 </tspan>
<tspan x="10" y="250">  │ │ ├── fs-extra@2.1.2 </tspan>
<tspan x="10" y="266">  │ │ └─┬ sanitize-filename@1.6.1 </tspan>
<tspan x="10" y="282">  │ │   └─┬ truncate-utf8-bytes@1.0.2 </tspan>
<tspan x="10" y="298">  │ │     └── utf8-byte-length@1.0.4 </tspan>
<tspan x="10" y="314">  │ ├── ensure-posix-path@1.0.2 </tspan>
<tspan x="10" y="330">  │ ├─┬ fast-sourcemap-concat@1.1.0 </tspan>
<tspan x="10" y="346">  │ │ ├─┬ chalk@0.5.1 </tspan>
<tspan x="10" y="362">  │ │ │ ├── ansi-styles@1.1.0 </tspan>
<tspan x="10" y="378">  │ │ │ ├─┬ has-ansi@0.1.0 </tspan>
<tspan x="10" y="394">  │ │ │ │ └── ansi-regex@0.2.1 </tspan>
<tspan x="10" y="410">  │ │ │ ├── strip-ansi@0.3.0 </tspan>
<tspan x="10" y="426">  │ │ │ └── supports-color@0.2.0 </tspan>
<tspan x="10" y="442">  │ │ ├── fs-extra@0.30.0 </tspan>
<tspan x="10" y="458">  │ │ ├─┬ memory-streams@0.1.2 </tspan>
<tspan x="10" y="474">  │ │ │ └─┬ readable-stream@1.0.34 </tspan>
<tspan x="10" y="490">  │ │ │   ├── core-util-is@1.0.2 </tspan>
<tspan x="10" y="506">  │ │ │   ├── isarray@0.0.1 </tspan>
<tspan x="10" y="522">  │ │ │   └── string_decoder@0.10.31 </tspan>
<tspan x="10" y="538">  │ │ ├─┬ source-map@0.4.4 </tspan>
<tspan x="10" y="554">  │ │ │ └── amdefine@1.0.1 </tspan>
<tspan x="10" y="570">  │ │ └── source-map-url@0.3.0 </tspan>
<tspan x="10" y="586">  │ ├── find-index@1.1.0 </tspan>
<tspan x="10" y="602">  │ ├─┬ fs-extra@1.0.0 </tspan>
<tspan x="10" y="618">  │ │ ├── graceful-fs@4.1.11 </tspan>
<tspan x="10" y="634">  │ │ ├── jsonfile@2.4.0 </tspan>
<tspan x="10" y="650">  │ │ └── klaw@1.3.1 </tspan>
<tspan x="10" y="666">  │ ├── lodash.merge@4.6.0 </tspan>
<tspan x="10" y="682">  │ ├── lodash.omit@4.5.0 </tspan>
<tspan x="10" y="698">  │ └── lodash.uniq@4.5.0 </tspan>
<tspan x="10" y="714">  ├─┬ broccoli-funnel@1.1.0 </tspan>
<tspan x="10" y="730">  │ ├── array-equal@1.0.0 </tspan>
<tspan x="10" y="746">  │ ├── blank-object@1.0.2 </tspan>
<tspan x="10" y="762">  │ ├─┬ debug@2.6.3 </tspan>
<tspan x="10" y="778">  │ │ └── ms@0.7.2 </tspan>
<tspan x="10" y="794">  │ ├── exists-sync@0.0.4 </tspan>
<tspan x="10" y="810">  │ ├── fast-ordered-set@1.0.3 </tspan>
<tspan x="10" y="826">  │ ├─┬ heimdalljs@0.2.4 </tspan>
<tspan x="10" y="842">  │ │ └── rsvp@3.2.1 </tspan>
<tspan x="10" y="858">  │ ├─┬ minimatch@3.0.3 </tspan>
<tspan x="10" y="874">  │ │ └─┬ brace-expansion@1.1.7 </tspan>
<tspan x="10" y="890">  │ │   ├── balanced-match@0.4.2 </tspan>
<tspan x="10" y="906">  │ │   └── concat-map@0.0.1 </tspan>
<tspan x="10" y="922">  │ ├─┬ mkdirp@0.5.1 </tspan>
<tspan x="10" y="938">  │ │ └── minimist@0.0.8 </tspan>
<tspan x="10" y="954">  │ ├── path-posix@1.0.0 </tspan>
<tspan x="10" y="970">  │ ├─┬ rimraf@2.6.1 </tspan>
<tspan x="10" y="986">  │ │ └─┬ glob@7.1.1 </tspan>
<tspan x="10" y="1002">  │ │   └── fs.realpath@1.0.0 </tspan>
<tspan x="10" y="1018">  │ └── symlink-or-copy@1.1.8 </tspan>
<tspan x="10" y="1034">  ├─┬ broccoli-merge-trees@2.0.0 </tspan>
<tspan x="10" y="1050">  │ └─┬ merge-trees@1.0.1 </tspan>
<tspan x="10" y="1066">  │   └─┬ can-symlink@1.0.0 </tspan>
<tspan x="10" y="1082">  │     └─┬ tmp@0.0.28 </tspan>
<tspan x="10" y="1098">  │       └── os-tmpdir@1.0.2 </tspan>
<tspan x="10" y="1114">  ├─┬ broccoli-persistent-filter@1.2.13 </tspan>
<tspan x="10" y="1130">  │ ├─┬ async-disk-cache@1.3.1 </tspan>
<tspan x="10" y="1146">  │ │ └─┬ istextorbinary@2.1.0 </tspan>
<tspan x="10" y="1162">  │ │   ├── binaryextensions@2.0.0 </tspan>
<tspan x="10" y="1178">  │ │   ├── editions@1.3.3 </tspan>
<tspan x="10" y="1194">  │ │   └── textextensions@2.0.1 </tspan>
<tspan x="10" y="1210">  │ ├── hash-for-dep@1.1.2 </tspan>
<tspan x="10" y="1226">  │ ├── heimdalljs-logger@0.1.9 </tspan>
<tspan x="10" y="1242">  │ ├─┬ md5-hex@1.3.0 </tspan>
<tspan x="10" y="1258">  │ │ └── md5-o-matic@0.1.1 </tspan>
<tspan x="10" y="1274">  │ └── promise-map-series@0.2.3 </tspan>
<tspan x="10" y="1290">  ├─┬ broccoli-plugin@1.3.0 </tspan>
<tspan x="10" y="1306">  │ └─┬ quick-temp@0.1.8 </tspan>
<tspan x="10" y="1322">  │   ├── mktemp@0.4.0 </tspan>
<tspan x="10" y="1338">  │   └─┬ underscore.string@3.3.4 </tspan>
<tspan x="10" y="1354">  │     ├── sprintf-js@1.0.3 </tspan>
<tspan x="10" y="1370">  │     └── util-deprecate@1.0.2 </tspan>
<tspan x="10" y="1386">  ├── broccoli-style-manifest@1.2.2 </tspan>
<tspan x="10" y="1402">  ├─┬ ember-cli-babel@5.2.4 </tspan>
<tspan x="10" y="1418">  │ ├─┬ broccoli-babel-transpiler@5.6.2 </tspan>
<tspan x="10" y="1434">  │ │ ├─┬ babel-core@5.8.38 </tspan>
<tspan x="10" y="1450">  │ │ │ ├── babel-plugin-constant-folding@1.0.1 </tspan>
<tspan x="10" y="1466">  │ │ │ ├── babel-plugin-dead-code-elimination@1.0.2 </tspan>
<tspan x="10" y="1482">  │ │ │ ├── babel-plugin-eval@1.0.1 </tspan>
<tspan x="10" y="1498">  │ │ │ ├── babel-plugin-inline-environment-variables@1.0.1 </tspan>
<tspan x="10" y="1514">  │ │ │ ├── babel-plugin-jscript@1.0.4 </tspan>
<tspan x="10" y="1530">  │ │ │ ├── babel-plugin-member-expression-literals@1.0.1 </tspan>
<tspan x="10" y="1546">  │ │ │ ├── babel-plugin-property-literals@1.0.1 </tspan>
<tspan x="10" y="1562">  │ │ │ ├── babel-plugin-proto-to-assign@1.0.4 </tspan>
<tspan x="10" y="1578">  │ │ │ ├── babel-plugin-react-constant-elements@1.0.3 </tspan>
<tspan x="10" y="1594">  │ │ │ ├── babel-plugin-react-display-name@1.0.3 </tspan>
<tspan x="10" y="1610">  │ │ │ ├── babel-plugin-remove-console@1.0.1 </tspan>
<tspan x="10" y="1626">  │ │ │ ├── babel-plugin-remove-debugger@1.0.1 </tspan>
<tspan x="10" y="1642">  │ │ │ ├── babel-plugin-runtime@1.0.7 </tspan>
<tspan x="10" y="1658">  │ │ │ ├─┬ babel-plugin-undeclared-variables-check@1.0.2 </tspan>
<tspan x="10" y="1674">  │ │ │ │ └── leven@1.0.2 </tspan>
<tspan x="10" y="1690">  │ │ │ ├── babel-plugin-undefined-to-void@1.1.6 </tspan>
<tspan x="10" y="1706">  │ │ │ ├── babylon@5.8.38 </tspan>
<tspan x="10" y="1722">  │ │ │ ├── bluebird@2.11.0 </tspan>
<tspan x="10" y="1738">  │ │ │ ├── convert-source-map@1.5.0 </tspan>
<tspan x="10" y="1754">  │ │ │ ├── core-js@1.2.7 </tspan>
<tspan x="10" y="1770">  │ │ │ ├─┬ detect-indent@3.0.1 </tspan>
<tspan x="10" y="1786">  │ │ │ │ ├── get-stdin@4.0.1 </tspan>
<tspan x="10" y="1802">  │ │ │ │ └── minimist@1.2.0 </tspan>
<tspan x="10" y="1818">  │ │ │ ├── esutils@2.0.2 </tspan>
<tspan x="10" y="1834">  │ │ │ ├── fs-readdir-recursive@0.1.2 </tspan>
<tspan x="10" y="1850">  │ │ │ ├── globals@6.4.1 </tspan>
<tspan x="10" y="1866">  │ │ │ ├─┬ home-or-tmp@1.0.0 </tspan>
<tspan x="10" y="1882">  │ │ │ │ └── user-home@1.1.1 </tspan>
<tspan x="10" y="1898">  │ │ │ ├─┬ is-integer@1.0.6 </tspan>
<tspan x="10" y="1914">  │ │ │ │ └─┬ is-finite@1.0.2 </tspan>
<tspan x="10" y="1930">  │ │ │ │   └── number-is-nan@1.0.1 </tspan>
<tspan x="10" y="1946">  │ │ │ ├── js-tokens@1.0.1 </tspan>
<tspan x="10" y="1962">  │ │ │ ├── json5@0.4.0 </tspan>
<tspan x="10" y="1978">  │ │ │ ├── lodash@3.10.1 </tspan>
<tspan x="10" y="1994">  │ │ │ ├── minimatch@2.0.10 </tspan>
<tspan x="10" y="2010">  │ │ │ ├── output-file-sync@1.1.2 </tspan>
<tspan x="10" y="2026">  │ │ │ ├── path-exists@1.0.0 </tspan>
<tspan x="10" y="2042">  │ │ │ ├── private@0.1.7 </tspan>
<tspan x="10" y="2058">  │ │ │ ├─┬ regenerator@0.8.40 </tspan>
<tspan x="10" y="2074">  │ │ │ │ ├─┬ commoner@0.10.8 </tspan>
<tspan x="10" y="2090">  │ │ │ │ │ ├─┬ commander@2.9.0 </tspan>
<tspan x="10" y="2106">  │ │ │ │ │ │ └── graceful-readlink@1.0.1 </tspan>
<tspan x="10" y="2122">  │ │ │ │ │ ├─┬ detective@4.5.0 </tspan>
<tspan x="10" y="2138">  │ │ │ │ │ │ ├── acorn@4.0.11 </tspan>
<tspan x="10" y="2154">  │ │ │ │ │ │ └── defined@1.0.0 </tspan>
<tspan x="10" y="2170">  │ │ │ │ │ ├── iconv-lite@0.4.15 </tspan>
<tspan x="10" y="2186">  │ │ │ │ │ ├── q@1.5.0 </tspan>
<tspan x="10" y="2202">  │ │ │ │ │ └─┬ recast@0.11.23 </tspan>
<tspan x="10" y="2218">  │ │ │ │ │   ├── ast-types@0.9.6 </tspan>
<tspan x="10" y="2234">  │ │ │ │ │   ├── esprima@3.1.3 </tspan>
<tspan x="10" y="2250">  │ │ │ │ │   └── source-map@0.5.6 </tspan>
<tspan x="10" y="2266">  │ │ │ │ ├─┬ defs@1.1.1 </tspan>
<tspan x="10" y="2282">  │ │ │ │ │ ├─┬ alter@0.2.0 </tspan>
<tspan x="10" y="2298">  │ │ │ │ │ │ └── stable@0.1.6 </tspan>
<tspan x="10" y="2314">  │ │ │ │ │ ├── ast-traverse@0.1.1 </tspan>
<tspan x="10" y="2330">  │ │ │ │ │ ├── breakable@1.0.0 </tspan>
<tspan x="10" y="2346">  │ │ │ │ │ ├── simple-fmt@0.1.0 </tspan>
<tspan x="10" y="2362">  │ │ │ │ │ ├── simple-is@0.2.0 </tspan>
<tspan x="10" y="2378">  │ │ │ │ │ ├── stringmap@0.2.2 </tspan>
<tspan x="10" y="2394">  │ │ │ │ │ ├── stringset@0.2.1 </tspan>
<tspan x="10" y="2410">  │ │ │ │ │ ├── tryor@0.1.2 </tspan>
<tspan x="10" y="2426">  │ │ │ │ │ └─┬ yargs@3.27.0 </tspan>
<tspan x="10" y="2442">  │ │ │ │ │   ├── camelcase@1.2.1 </tspan>
<tspan x="10" y="2458">  │ │ │ │ │   ├─┬ cliui@2.1.0 </tspan>
<tspan x="10" y="2474">  │ │ │ │ │   │ ├─┬ center-align@0.1.3 </tspan>
<tspan x="10" y="2490">  │ │ │ │ │   │ │ ├─┬ align-text@0.1.4 </tspan>
<tspan x="10" y="2506">  │ │ │ │ │   │ │ │ ├── kind-of@3.1.0 </tspan>
<tspan x="10" y="2522">  │ │ │ │ │   │ │ │ ├── longest@1.0.1 </tspan>
<tspan x="10" y="2538">  │ │ │ │ │   │ │ │ └── repeat-string@1.6.1 </tspan>
<tspan x="10" y="2554">  │ │ │ │ │   │ │ └── lazy-cache@1.0.4 </tspan>
<tspan x="10" y="2570">  │ │ │ │ │   │ ├── right-align@0.1.3 </tspan>
<tspan x="10" y="2586">  │ │ │ │ │   │ └── wordwrap@0.0.2 </tspan>
<tspan x="10" y="2602">  │ │ │ │ │   ├── decamelize@1.2.0 </tspan>
<tspan x="10" y="2618">  │ │ │ │ │   ├─┬ os-locale@1.4.0 </tspan>
<tspan x="10" y="2634">  │ │ │ │ │   │ └─┬ lcid@1.0.0 </tspan>
<tspan x="10" y="2650">  │ │ │ │ │   │   └── invert-kv@1.0.0 </tspan>
<tspan x="10" y="2666">  │ │ │ │ │   ├── window-size@0.1.4 </tspan>
<tspan x="10" y="2682">  │ │ │ │ │   └── y18n@3.2.1 </tspan>
<tspan x="10" y="2698">  │ │ │ │ ├── esprima-fb@15001.1001.0-dev-harmony-fb </tspan>
<tspan x="10" y="2714">  │ │ │ │ ├─┬ recast@0.10.33 </tspan>
<tspan x="10" y="2730">  │ │ │ │ │ ├── ast-types@0.8.12 </tspan>
<tspan x="10" y="2746">  │ │ │ │ │ └── source-map@0.5.6 </tspan>
<tspan x="10" y="2762">  │ │ │ │ └── through@2.3.8 </tspan>
<tspan x="10" y="2778">  │ │ │ ├─┬ regexpu@1.3.0 </tspan>
<tspan x="10" y="2794">  │ │ │ │ ├── esprima@2.7.3 </tspan>
<tspan x="10" y="2810">  │ │ │ │ ├── regenerate@1.3.2 </tspan>
<tspan x="10" y="2826">  │ │ │ │ ├── regjsgen@0.2.0 </tspan>
<tspan x="10" y="2842">  │ │ │ │ └─┬ regjsparser@0.1.5 </tspan>
<tspan x="10" y="2858">  │ │ │ │   └── jsesc@0.5.0 </tspan>
<tspan x="10" y="2874">  │ │ │ ├── repeating@1.1.3 </tspan>
<tspan x="10" y="2890">  │ │ │ ├── shebang-regex@1.0.0 </tspan>
<tspan x="10" y="2906">  │ │ │ ├── slash@1.0.0 </tspan>
<tspan x="10" y="2922">  │ │ │ ├── source-map@0.5.6 </tspan>
<tspan x="10" y="2938">  │ │ │ ├─┬ source-map-support@0.2.10 </tspan>
<tspan x="10" y="2954">  │ │ │ │ └── source-map@0.1.32 </tspan>
<tspan x="10" y="2970">  │ │ │ ├── to-fast-properties@1.0.2 </tspan>
<tspan x="10" y="2986">  │ │ │ ├── trim-right@1.0.1 </tspan>
<tspan x="10" y="3002">  │ │ │ └── try-resolve@1.0.1 </tspan>
<tspan x="10" y="3018">  │ │ ├── broccoli-merge-trees@1.2.4 </tspan>
<tspan x="10" y="3034">  │ │ ├── clone@0.2.0 </tspan>
<tspan x="10" y="3050">  │ │ └─┬ json-stable-stringify@1.0.1 </tspan>
<tspan x="10" y="3066">  │ │   └── jsonify@0.0.0 </tspan>
<tspan x="10" y="3082">  │ ├── clone@2.1.1 </tspan>
<tspan x="10" y="3098">  │ ├─┬ ember-cli-version-checker@1.2.0 </tspan>
<tspan x="10" y="3114">  │ │ └── semver@5.3.0 </tspan>
<tspan x="10" y="3130">  │ └─┬ resolve@1.3.2 </tspan>
<tspan x="10" y="3146">  │   └── path-parse@1.0.5 </tspan>
<tspan x="10" y="3162">  ├─┬ ember-getowner-polyfill@1.2.2 </tspan>
<tspan x="10" y="3178">  │ └── ember-factory-for-polyfill@1.1.1 </tspan>
<tspan x="10" y="3194">  ├─┬ fs-tree-diff@0.5.6 </tspan>
<tspan x="10" y="3210">  │ └── object-assign@4.1.1 </tspan>
<tspan x="10" y="3226">  ├─┬ md5@2.2.1 </tspan>
<tspan x="10" y="3242">  │ ├── charenc@0.0.2 </tspan>
<tspan x="10" y="3258">  │ ├── crypt@0.0.2 </tspan>
<tspan x="10" y="3274">  │ └── is-buffer@1.1.5 </tspan>
<tspan x="10" y="3290">  ├─┬ postcss@5.2.17 </tspan>
<tspan x="10" y="3306">  │ ├─┬ chalk@1.1.3 </tspan>
<tspan x="10" y="3322">  │ │ ├── ansi-styles@2.2.1 </tspan>
<tspan x="10" y="3338">  │ │ ├── escape-string-regexp@1.0.5 </tspan>
<tspan x="10" y="3354">  │ │ ├─┬ has-ansi@2.0.0 </tspan>
<tspan x="10" y="3370">  │ │ │ └── ansi-regex@2.1.1 </tspan>
<tspan x="10" y="3386">  │ │ ├── strip-ansi@3.0.1 </tspan>
<tspan x="10" y="3402">  │ │ └── supports-color@2.0.0 </tspan>
<tspan x="10" y="3418">  │ ├── js-base64@2.1.9 </tspan>
<tspan x="10" y="3434">  │ ├── source-map@0.5.6 </tspan>
<tspan x="10" y="3450">  │ └─┬ supports-color@3.2.3 </tspan>
<tspan x="10" y="3466">  │   └── has-flag@1.0.0 </tspan>
<tspan x="10" y="3482">  ├── postcss-less@0.15.0 </tspan>
<tspan x="10" y="3498">  ├── postcss-scss@0.4.1 </tspan>
<tspan x="10" y="3514">  ├── postcss-selector-namespace@1.4.1 </tspan>
<tspan x="10" y="3530">  ├── rsvp@3.5.0 </tspan>
<tspan x="10" y="3546">  └─┬ walk-sync@0.3.1 </tspan>
<tspan x="10" y="3562">    └── matcher-collection@1.0.4</tspan>
</text>
</svg>
